<svg width="22" height="22" viewBox="0 0 22 22" fill="none" xmlns="http://www.w3.org/2000/svg">
<g clip-path="url(#clip0_265_331)">
<path d="M10.8 0C4.83536 0 0 4.83536 0 10.8C0 16.765 4.83536 21.6 10.8 21.6C16.765 21.6 21.6 16.765 21.6 10.8C21.6 4.83536 16.765 0 10.8 0ZM10.8 20.2713C5.58934 20.2713 1.35 16.0107 1.35 10.8C1.35 5.58929 5.58934 1.34996 10.8 1.34996C16.0107 1.34996 20.25 5.58932 20.25 10.8C20.25 16.0106 16.0107 20.2713 10.8 20.2713ZM14.6181 6.98186C14.3546 6.71828 13.9273 6.71828 13.6637 6.98186L10.8 9.84555L7.93631 6.98186C7.67272 6.71828 7.24545 6.71828 6.98153 6.98186C6.71794 7.24545 6.71794 7.67272 6.98153 7.93631L9.84521 10.8L6.98153 13.6637C6.71794 13.9269 6.71794 14.3549 6.98153 14.6182C7.24511 14.8817 7.67239 14.8817 7.93631 14.6182L10.8 11.7545L13.6637 14.6182C13.9273 14.8817 14.3546 14.8817 14.6181 14.6182C14.8817 14.3549 14.8817 13.9269 14.6181 13.6637L11.7544 10.8L14.6181 7.93631C14.8821 7.67239 14.8821 7.24511 14.6181 6.98186Z" fill="black"/>
</g>
<defs>
<clipPath id="clip0_265_331">
<rect width="21.6" height="21.6" fill="white"/>
</clipPath>
</defs>
</svg>
