<svg width="141" height="143" viewBox="0 0 141 143" fill="none" xmlns="http://www.w3.org/2000/svg">
<g clip-path="url(#clip0_747_306)">
<path d="M71.0473 34.5244C66.4194 34.683 61.7915 34.8189 57.1866 34.9774C50.7168 35.1813 44.2469 35.3851 37.7771 35.589C36.7179 35.6116 36.3495 36.0194 36.4186 37.084C36.9482 44.6947 39.2046 51.6939 44.3851 57.5153C51.1772 65.1487 59.8114 68.5917 70.0803 67.5497C78.9447 66.6663 85.9211 62.4759 90.8022 55.0916C93.6803 50.7199 95.2229 45.8273 96.0288 40.7081C96.3511 38.7602 96.5353 36.7669 96.8576 34.8189C96.9267 34.4564 97.3642 33.8902 97.6405 33.8902C99.3213 33.8449 101.025 33.8902 102.706 34.0034C108.531 34.4791 111.179 40.0513 109.59 44.8533C107.725 50.5387 102.13 53.7325 95.8906 52.5547C94.7624 52.3508 94.3019 52.6679 93.7954 53.5966C87.9702 64.7863 76.8955 70.1093 65.107 69.4071C51.2233 68.5917 40.7011 60.0069 36.4647 46.9825C35.2674 43.313 34.6688 39.5303 34.5767 35.6796C34.5767 34.683 34.899 34.2526 35.9351 34.2299C43.0957 34.1846 50.2793 34.0487 57.4399 34.0714C61.9527 34.0714 66.4654 34.3205 71.0012 34.4338C71.0012 34.4564 71.0243 34.4791 71.0473 34.5244ZM95.4071 50.4708C99.4364 52.1923 105.077 49.9724 107.15 45.9632C108.278 43.7887 108.6 41.5236 107.587 39.2358C106.39 36.495 103.443 35.2039 99.8738 35.6569C98.8608 35.7929 98.4463 36.1553 98.3542 37.1519C97.9858 41.2518 97.18 45.261 95.7525 49.1344C95.5913 49.5421 95.5222 49.9725 95.3841 50.4481L95.4071 50.4708Z" fill="white"/>
<path d="M77.2637 16.2451C75.7441 16.2451 74.6619 15.1126 74.6849 13.6176C74.708 12.1679 75.8592 11.126 77.4018 11.126C78.8523 11.126 80.0036 12.2585 80.0036 13.6402C80.0036 15.1126 78.8063 16.2451 77.2406 16.2451H77.2637Z" fill="white"/>
<path d="M71.1392 19.416C72.1523 19.416 72.9351 20.2088 72.9351 21.1602C72.9351 22.0889 72.0832 22.9496 71.1392 22.9496C70.0801 22.9496 69.2512 22.1568 69.2512 21.1602C69.2512 20.1409 70.0571 19.3934 71.1392 19.416Z" fill="white"/>
<path d="M21.9132 95.0936C20.5548 95.0936 19.3115 94.8217 18.2063 94.2781C17.1011 93.7345 16.2262 92.919 15.5815 91.8318C14.9368 90.7445 14.6145 89.4308 14.6145 87.8678C14.6145 86.69 14.7987 85.648 15.2131 84.742C15.6276 83.8359 16.1341 83.0885 16.8248 82.4769C17.5156 81.8653 18.2984 81.4123 19.1733 81.1178C20.0713 80.8234 21.0153 80.6648 22.0053 80.6648C22.8112 80.6648 23.548 80.7554 24.2157 80.9366C24.8834 81.1178 25.5281 81.367 26.1037 81.6841L26.1958 84.221H25.9885L24.9294 82.5675C24.7913 82.2957 24.6301 82.0692 24.4689 81.8426C24.3078 81.6161 24.1005 81.4576 23.8473 81.367C23.6401 81.2764 23.4328 81.1858 23.2256 81.1405C23.0184 81.0952 22.7651 81.0725 22.4658 81.0725C21.66 81.0725 20.9002 81.2764 20.2555 81.7067C19.5878 82.1371 19.0582 82.8393 18.6438 83.8359C18.2524 84.8326 18.0451 86.169 18.0451 87.8905C18.0451 89.612 18.2293 90.9257 18.6207 91.9224C19.0122 92.919 19.5187 93.6212 20.1634 94.0289C20.8081 94.4593 21.5448 94.6632 22.3737 94.6632C22.8342 94.6632 23.1796 94.6405 23.4559 94.5726C23.7322 94.5046 23.9854 94.414 24.2617 94.3008C24.538 94.1875 24.7222 94.0289 24.8604 93.8251C24.9985 93.6212 25.1366 93.3721 25.2518 93.1229L26.1727 91.0843H26.38L26.3109 94.0516C25.7123 94.3461 25.0676 94.5952 24.3308 94.7991C23.594 95.0029 22.8112 95.0936 21.9363 95.0936H21.9132Z" fill="white"/>
<path d="M26.9324 94.731V94.5271L27.4619 94.3459C27.7382 94.2326 27.9685 94.0967 28.1066 93.9382C28.2678 93.7796 28.3829 93.5531 28.498 93.2586L32.8266 81.0044H34.6225L38.9051 93.3266C39.0202 93.6211 39.1353 93.8702 39.2965 94.0288C39.4346 94.1873 39.6649 94.3232 39.9412 94.4365L40.1944 94.5271V94.731H34.8528V94.5271L35.1751 94.4365C35.4744 94.3232 35.6586 94.1647 35.7047 93.9608C35.7737 93.757 35.7507 93.5305 35.6816 93.236L34.6916 90.246H30.0176L29.0046 93.168C28.9125 93.4625 28.8664 93.7117 28.9125 93.8929C28.9585 94.0741 29.1197 94.21 29.396 94.3232L29.8565 94.5045V94.7083H26.9554L26.9324 94.731ZM30.1328 89.8383H34.5304L32.4122 83.4054L30.1328 89.8383Z" fill="white"/>
<path d="M40.8391 94.731V94.5271L41.2305 94.4139C41.5068 94.3233 41.691 94.1874 41.8061 94.0288C41.8982 93.8702 41.9443 93.6437 41.9443 93.3719C41.9443 92.5338 41.9443 91.6957 41.9443 90.8577V85.0137C41.9443 84.1756 41.9443 83.3375 41.9443 82.522C41.9443 82.2502 41.8982 82.0237 41.8292 81.8652C41.7601 81.7066 41.5759 81.5707 41.3226 81.4801L40.8621 81.3215V81.1177H51.0619L51.2001 84.5606H50.9929L49.7956 82.3861C49.6575 82.1143 49.4963 81.9105 49.3121 81.7746C49.1279 81.6387 48.8746 81.548 48.5523 81.548H45.1677C45.1677 82.522 45.1677 83.5413 45.1677 84.5606V87.5959H47.355C47.6774 87.5959 47.9076 87.5279 48.0688 87.392C48.2299 87.2561 48.3681 87.0523 48.5062 86.8031L48.9437 86.0103H49.1509V89.6345H48.9437L48.4832 88.8417C48.3451 88.5925 48.2069 88.3887 48.0457 88.2301C47.9076 88.0716 47.6543 88.0036 47.332 88.0036H45.1447V90.767C45.1447 91.6504 45.1447 92.5112 45.1447 93.3493C45.1447 93.8929 45.421 94.2327 45.9505 94.4139L46.5722 94.5951V94.7989H40.8391V94.731Z" fill="white"/>
<path d="M52.0061 94.7309V94.527L52.4896 94.3458C52.7199 94.2552 52.881 94.1193 52.9731 93.9607C53.0652 93.8022 53.1113 93.5757 53.1113 93.3039V82.4993C53.1113 82.2275 53.0652 82.001 52.9962 81.8424C52.9271 81.6838 52.7429 81.5479 52.4896 81.4573L52.0061 81.2761V81.0723H62.0908L62.2289 84.2661H62.0217L61.1238 82.3181C61.0086 82.0689 60.8705 81.8651 60.7323 81.7065C60.5942 81.5479 60.387 81.48 60.1107 81.48H56.3117V87.4599H58.5681C58.8443 87.4599 59.0516 87.3919 59.2127 87.2334C59.3509 87.0975 59.489 86.8936 59.6042 86.6444L60.0186 85.8064H60.2258V89.5438H60.0186L59.6042 88.683C59.466 88.4339 59.3509 88.23 59.2127 88.0941C59.0746 87.9582 58.8674 87.8676 58.5911 87.8676H56.3347V94.3005H60.5942C60.8705 94.3005 61.1007 94.2326 61.2389 94.074C61.4001 93.9381 61.5152 93.7342 61.6073 93.4624L62.4822 91.5144H62.6894L62.5743 94.7082H52.0752L52.0061 94.7309Z" fill="white"/>
<path d="M68.2844 94.7309V94.5271L68.6989 94.3912C68.9752 94.3006 69.1594 94.1873 69.2514 94.0061C69.3435 93.8475 69.3896 93.621 69.3896 93.3492V82.4993C69.3896 82.2275 69.3435 82.001 69.2514 81.8425C69.1594 81.6839 68.9752 81.548 68.6758 81.4574L68.2844 81.2988V81.095H73.3958C75.4911 81.095 76.9876 81.48 77.9316 82.2275C78.8526 82.975 79.3361 83.9717 79.3361 85.1948C79.3361 85.9876 79.1519 86.7124 78.7605 87.3693C78.3691 88.0262 77.7474 88.5472 76.8495 88.9323C75.9746 89.3173 74.7773 89.5212 73.2807 89.5212H72.567V93.3266C72.567 93.8702 72.8433 94.21 73.3958 94.3912L74.0175 94.5724V94.7762H68.2844V94.7309ZM72.567 89.0455H73.3728C74.0635 89.0455 74.6161 88.9323 75.0536 88.7057C75.4911 88.4792 75.8134 88.0942 76.0206 87.5505C76.2278 87.0069 76.343 86.2368 76.343 85.2401C76.343 84.2435 76.2278 83.4733 75.9976 82.9297C75.7673 82.3861 75.422 82.001 74.9845 81.7745C74.5471 81.548 73.9714 81.4574 73.3037 81.4574H72.59V89.0455H72.567Z" fill="white"/>
<path d="M78.1616 94.731V94.5271L78.6912 94.3459C78.9675 94.2326 79.1977 94.0967 79.3359 93.9382C79.497 93.7796 79.6122 93.5531 79.7273 93.2586L84.0559 81.0044H85.8518L90.1343 93.3266C90.2494 93.6211 90.3645 93.8702 90.5027 94.0288C90.6408 94.1873 90.8711 94.3232 91.1474 94.4365L91.4006 94.5271V94.731H86.059V94.5271L86.3813 94.4365C86.6806 94.3232 86.8648 94.1647 86.9109 93.9608C86.98 93.757 86.9569 93.5305 86.8879 93.236L85.8978 90.246H81.2239L80.2108 93.168C80.1187 93.4625 80.0726 93.7117 80.1187 93.8929C80.1647 94.0741 80.3259 94.21 80.6022 94.3232L81.0627 94.5045V94.7083H78.1616V94.731ZM81.362 89.8383H85.7597L83.6414 83.4054L81.362 89.8383Z" fill="white"/>
<path d="M97.5942 95.0934C96.5351 95.0934 95.5911 94.9122 94.7622 94.5271C93.9333 94.142 93.3117 93.5531 92.8512 92.7603C92.3907 91.9675 92.1605 90.8803 92.1605 89.5665V82.4088C92.1605 81.8878 91.8842 81.548 91.3316 81.3668L90.8711 81.2309V81.027H96.6963V81.2309L96.0746 81.3895C95.545 81.5254 95.2918 81.8651 95.2918 82.4314V90.0648C95.2918 91.3559 95.5681 92.3073 96.1207 92.9189C96.6732 93.5305 97.4561 93.8476 98.4691 93.8476C99.4822 93.8476 100.38 93.5305 101.002 92.8736C101.623 92.2167 101.946 91.3106 101.946 90.1101V82.4994C101.946 82.2276 101.9 81.9784 101.808 81.7745C101.716 81.5707 101.531 81.4121 101.255 81.3442L100.726 81.2083V81.0044H103.673V81.2083L103.097 81.3442C102.821 81.3895 102.66 81.5254 102.567 81.7292C102.475 81.9331 102.452 82.1823 102.452 82.4541V90.0422C102.452 91.0615 102.245 91.9222 101.831 92.6924C101.416 93.4399 100.864 94.0288 100.127 94.4365C99.3901 94.8442 98.5382 95.0481 97.5482 95.0481L97.5942 95.0934Z" fill="white"/>
<path d="M108.692 95.0936C107.909 95.0936 107.126 95.003 106.343 94.8218C105.561 94.6406 104.87 94.3914 104.34 94.097L104.455 91.2882H104.663L105.307 92.6246C105.492 93.0097 105.722 93.3495 105.929 93.6439C106.159 93.9384 106.459 94.1649 106.85 94.3461C107.126 94.482 107.403 94.5726 107.656 94.6179C107.909 94.6632 108.208 94.6859 108.531 94.6859C109.383 94.6859 110.073 94.4594 110.557 94.0064C111.063 93.5533 111.294 92.9644 111.294 92.2396C111.294 91.56 111.133 91.0391 110.787 90.654C110.442 90.2689 109.912 89.9065 109.152 89.5441L108.278 89.159C107.08 88.638 106.136 88.0265 105.446 87.3469C104.755 86.6674 104.432 85.7614 104.432 84.6288C104.432 83.8134 104.64 83.1112 105.077 82.5222C105.515 81.9333 106.113 81.4803 106.873 81.1632C107.633 80.8461 108.531 80.6875 109.567 80.6875C110.304 80.6875 111.017 80.7781 111.685 80.982C112.353 81.1858 112.928 81.435 113.412 81.7748L113.297 84.2664H113.09L112.215 82.7035C111.984 82.2278 111.731 81.888 111.501 81.6842C111.271 81.4803 110.994 81.3444 110.672 81.2538C110.488 81.2085 110.327 81.1632 110.165 81.1405C110.004 81.1405 109.82 81.1179 109.567 81.1179C108.853 81.1179 108.254 81.3217 107.748 81.7295C107.264 82.1372 107.011 82.6808 107.011 83.383C107.011 84.0852 107.195 84.6515 107.587 85.0818C107.978 85.5122 108.531 85.8746 109.245 86.2144L110.212 86.6221C111.547 87.211 112.537 87.8226 113.113 88.4795C113.711 89.1364 113.988 89.9745 113.988 91.0164C113.988 92.2396 113.527 93.2136 112.583 93.9837C111.639 94.7538 110.327 95.1389 108.623 95.1389L108.692 95.0936Z" fill="white"/>
<path d="M115.047 94.7309V94.527L115.53 94.3458C115.761 94.2552 115.945 94.1193 116.037 93.9607C116.129 93.8022 116.175 93.5757 116.175 93.3039V82.4993C116.175 82.2275 116.129 82.001 116.06 81.8424C115.991 81.6838 115.807 81.5479 115.553 81.4573L115.07 81.2761V81.0723H125.155L125.27 84.2661H125.062L124.165 82.3181C124.049 82.0689 123.911 81.8651 123.773 81.7065C123.635 81.5479 123.428 81.48 123.151 81.48H119.352V87.4599H121.609C121.885 87.4599 122.092 87.3919 122.254 87.2334C122.392 87.0975 122.53 86.8936 122.645 86.6444L123.059 85.8064H123.267V89.5438H123.059L122.645 88.683C122.53 88.4339 122.392 88.23 122.254 88.0941C122.115 87.9582 121.908 87.8676 121.632 87.8676H119.375V94.3005H123.635C123.911 94.3005 124.142 94.2326 124.28 94.074C124.441 93.9381 124.556 93.7342 124.671 93.4624L125.546 91.5144H125.753L125.615 94.7082H115.116L115.047 94.7309Z" fill="white"/>
</g>
<path d="M1.30078 123.757H5.83594C6.79102 123.757 7.59961 123.936 8.26172 124.293C8.92383 124.645 9.41895 125.131 9.74707 125.752C10.0811 126.373 10.248 127.085 10.248 127.888C10.248 128.685 10.0811 129.394 9.74707 130.015C9.41895 130.636 8.92383 131.125 8.26172 131.483C7.59961 131.84 6.79102 132.019 5.83594 132.019H3.23438V136.484H1.30078V123.757ZM5.64258 130.366C6.53906 130.366 7.2041 130.144 7.6377 129.698C8.07715 129.247 8.29688 128.644 8.29688 127.888C8.29688 127.126 8.08008 126.523 7.64648 126.077C7.21289 125.632 6.54492 125.409 5.64258 125.409H3.23438V130.366H5.64258ZM11.6016 133.794C11.6016 132.804 11.9355 132.098 12.6035 131.676C13.2715 131.254 14.127 131.005 15.1699 130.929C15.5684 130.9 16.002 130.873 16.4707 130.85C16.9453 130.821 17.3467 130.8 17.6748 130.788L17.666 130.032C17.666 129.488 17.502 129.069 17.1738 128.776C16.8457 128.477 16.3652 128.327 15.7324 128.327C15.1992 128.327 14.7627 128.439 14.4229 128.661C14.083 128.878 13.8633 129.171 13.7637 129.54H11.9004C11.959 129.013 12.1553 128.544 12.4893 128.134C12.8232 127.718 13.2744 127.396 13.8428 127.167C14.417 126.933 15.0703 126.816 15.8027 126.816C16.4062 126.816 16.9863 126.909 17.543 127.097C18.1055 127.284 18.5801 127.624 18.9668 128.116C19.3535 128.609 19.5469 129.282 19.5469 130.138V136.484H17.7188V135.183H17.6484C17.4316 135.605 17.0859 135.962 16.6113 136.255C16.1426 136.548 15.5449 136.695 14.8184 136.695C14.209 136.695 13.6611 136.58 13.1748 136.352C12.6885 136.123 12.3047 135.792 12.0234 135.359C11.7422 134.919 11.6016 134.398 11.6016 133.794ZM13.4297 133.812C13.4297 134.257 13.5938 134.6 13.9219 134.84C14.2559 135.08 14.6953 135.2 15.2402 135.2C15.7324 135.2 16.1631 135.104 16.5322 134.91C16.9014 134.711 17.1855 134.448 17.3848 134.119C17.584 133.785 17.6836 133.425 17.6836 133.038L17.6748 132.168L15.4336 132.318C14.7949 132.365 14.2998 132.511 13.9482 132.757C13.6025 132.997 13.4297 133.349 13.4297 133.812ZM27.8789 126.939H29.7422V136.484H27.9141V134.831H27.8086C27.5801 135.365 27.2197 135.795 26.7275 136.123C26.2354 136.446 25.6465 136.607 24.9609 136.607C24.3398 136.607 23.792 136.469 23.3174 136.194C22.8428 135.918 22.4736 135.511 22.21 134.972C21.9463 134.433 21.8145 133.777 21.8145 133.003V126.939H23.6953V132.775C23.6953 133.202 23.7773 133.577 23.9414 133.9C24.1055 134.222 24.3311 134.471 24.6182 134.647C24.9111 134.817 25.248 134.902 25.6289 134.902C25.9922 134.902 26.3467 134.814 26.6924 134.638C27.0381 134.456 27.3223 134.187 27.5449 133.829C27.7676 133.466 27.8789 133.027 27.8789 132.511V126.939ZM37.3887 129.54C37.3008 129.148 37.1016 128.843 36.791 128.626C36.4863 128.404 36.082 128.292 35.5781 128.292C35.2266 128.292 34.9102 128.351 34.6289 128.468C34.3477 128.579 34.1279 128.732 33.9697 128.925C33.8174 129.118 33.7441 129.335 33.75 129.575C33.7383 129.863 33.8525 130.106 34.0928 130.305C34.3389 130.504 34.7227 130.665 35.2441 130.788L36.7559 131.14C37.6348 131.333 38.2881 131.644 38.7158 132.072C39.1436 132.493 39.3633 133.044 39.375 133.724C39.3691 134.298 39.208 134.811 38.8916 135.262C38.5811 135.707 38.1328 136.056 37.5469 136.308C36.9609 136.554 36.2695 136.677 35.4727 136.677C34.3359 136.677 33.4336 136.434 32.7656 135.948C32.0977 135.461 31.7051 134.773 31.5879 133.882H33.5039C33.6621 134.738 34.3125 135.165 35.4551 135.165C36.0645 135.165 36.5479 135.051 36.9053 134.823C37.2686 134.588 37.4531 134.269 37.459 133.865C37.4473 133.554 37.3213 133.296 37.0811 133.091C36.8467 132.886 36.4805 132.728 35.9824 132.616L34.4883 132.3C33.627 132.107 32.9736 131.787 32.5283 131.342C32.0889 130.897 31.8691 130.343 31.8691 129.681C31.8691 129.118 32.0215 128.62 32.3262 128.187C32.6367 127.753 33.0703 127.416 33.627 127.176C34.1836 126.936 34.8281 126.816 35.5605 126.816C36.2578 126.816 36.8672 126.93 37.3887 127.158C37.916 127.381 38.332 127.698 38.6367 128.108C38.9473 128.518 39.1348 128.995 39.1992 129.54H37.3887ZM45.3164 136.677C44.3906 136.677 43.585 136.475 42.8994 136.071C42.2197 135.666 41.6953 135.095 41.3262 134.357C40.9629 133.618 40.7812 132.757 40.7812 131.773C40.7812 130.8 40.9629 129.939 41.3262 129.189C41.6953 128.439 42.2139 127.856 42.8818 127.44C43.5498 127.024 44.3203 126.816 45.1934 126.816C45.9609 126.816 46.6641 126.983 47.3027 127.317C47.9414 127.651 48.4541 128.178 48.8408 128.899C49.2334 129.614 49.4297 130.519 49.4297 131.615V132.282H42.6445C42.6621 132.874 42.7822 133.387 43.0049 133.821C43.2334 134.248 43.5469 134.573 43.9453 134.796C44.3438 135.019 44.8066 135.13 45.334 135.13C45.8438 135.13 46.2744 135.036 46.626 134.849C46.9775 134.656 47.2383 134.404 47.4082 134.093H49.3066C49.166 134.609 48.9141 135.063 48.5508 135.455C48.1875 135.842 47.7275 136.144 47.1709 136.361C46.6201 136.572 46.002 136.677 45.3164 136.677ZM47.584 130.876C47.584 130.39 47.4844 129.956 47.2852 129.575C47.0918 129.195 46.8164 128.899 46.459 128.688C46.1016 128.471 45.6855 128.363 45.2109 128.363C44.7246 128.363 44.291 128.477 43.9102 128.705C43.5352 128.928 43.2393 129.233 43.0225 129.619C42.8057 130 42.6826 130.419 42.6533 130.876H47.584ZM52.1543 140.122H50.6602L51.5918 135.271H53.5605L52.1543 140.122ZM67.3242 123.757V132.775C67.3242 133.583 67.1631 134.281 66.8408 134.866C66.5244 135.447 66.0732 135.892 65.4873 136.202C64.9014 136.507 64.2188 136.659 63.4395 136.659C62.7129 136.659 62.0625 136.528 61.4883 136.264C60.9199 136 60.4717 135.614 60.1436 135.104C59.8213 134.594 59.6602 133.988 59.6602 133.284H61.5762C61.582 133.812 61.7607 134.231 62.1123 134.541C62.4697 134.852 62.9297 135.007 63.4922 135.007C64.1016 135.007 64.5703 134.817 64.8984 134.436C65.2266 134.055 65.3906 133.501 65.3906 132.775V123.757H67.3242ZM75.8145 126.939H77.6777V136.484H75.8496V134.831H75.7441C75.5156 135.365 75.1553 135.795 74.6631 136.123C74.1709 136.446 73.582 136.607 72.8965 136.607C72.2754 136.607 71.7275 136.469 71.2529 136.194C70.7783 135.918 70.4092 135.511 70.1455 134.972C69.8818 134.433 69.75 133.777 69.75 133.003V126.939H71.6309V132.775C71.6309 133.202 71.7129 133.577 71.877 133.9C72.041 134.222 72.2666 134.471 72.5537 134.647C72.8467 134.817 73.1836 134.902 73.5645 134.902C73.9277 134.902 74.2822 134.814 74.6279 134.638C74.9736 134.456 75.2578 134.187 75.4805 133.829C75.7031 133.466 75.8145 133.027 75.8145 132.511V126.939ZM85.3242 129.54C85.2363 129.148 85.0371 128.843 84.7266 128.626C84.4219 128.404 84.0176 128.292 83.5137 128.292C83.1621 128.292 82.8457 128.351 82.5645 128.468C82.2832 128.579 82.0635 128.732 81.9053 128.925C81.7529 129.118 81.6797 129.335 81.6855 129.575C81.6738 129.863 81.7881 130.106 82.0283 130.305C82.2744 130.504 82.6582 130.665 83.1797 130.788L84.6914 131.14C85.5703 131.333 86.2236 131.644 86.6514 132.072C87.0791 132.493 87.2988 133.044 87.3105 133.724C87.3047 134.298 87.1436 134.811 86.8271 135.262C86.5166 135.707 86.0684 136.056 85.4824 136.308C84.8965 136.554 84.2051 136.677 83.4082 136.677C82.2715 136.677 81.3691 136.434 80.7012 135.948C80.0332 135.461 79.6406 134.773 79.5234 133.882H81.4395C81.5977 134.738 82.248 135.165 83.3906 135.165C84 135.165 84.4834 135.051 84.8408 134.823C85.2041 134.588 85.3887 134.269 85.3945 133.865C85.3828 133.554 85.2568 133.296 85.0166 133.091C84.7822 132.886 84.416 132.728 83.918 132.616L82.4238 132.3C81.5625 132.107 80.9092 131.787 80.4639 131.342C80.0244 130.897 79.8047 130.343 79.8047 129.681C79.8047 129.118 79.957 128.62 80.2617 128.187C80.5723 127.753 81.0059 127.416 81.5625 127.176C82.1191 126.936 82.7637 126.816 83.4961 126.816C84.1934 126.816 84.8027 126.93 85.3242 127.158C85.8516 127.381 86.2676 127.698 86.5723 128.108C86.8828 128.518 87.0703 128.995 87.1348 129.54H85.3242ZM93.6035 128.433H91.6523V133.671C91.6523 134.157 91.752 134.491 91.9512 134.673C92.1562 134.849 92.4375 134.943 92.7949 134.954C92.959 134.954 93.2168 134.943 93.5684 134.919C93.6035 134.907 93.6621 134.902 93.7441 134.902V136.536C93.3926 136.583 93 136.607 92.5664 136.607C92.0566 136.607 91.5908 136.513 91.1689 136.325C90.7471 136.138 90.4102 135.854 90.1582 135.473C89.9062 135.086 89.7832 134.615 89.7891 134.058V128.433H88.3828V126.939H89.7891V124.654H91.6523V126.939H93.6035V128.433ZM106.91 127.115C106.852 126.534 106.585 126.08 106.11 125.752C105.636 125.418 105.029 125.251 104.291 125.251C103.781 125.251 103.333 125.333 102.946 125.497C102.56 125.656 102.261 125.878 102.05 126.165C101.845 126.447 101.742 126.769 101.742 127.132C101.742 127.671 101.962 128.084 102.401 128.371C102.841 128.658 103.395 128.884 104.062 129.048L105.293 129.382C106.318 129.622 107.186 130.021 107.895 130.577C108.604 131.134 108.961 131.931 108.967 132.968C108.961 133.689 108.771 134.33 108.396 134.893C108.021 135.455 107.479 135.898 106.77 136.22C106.061 136.536 105.217 136.695 104.238 136.695C103.295 136.695 102.472 136.545 101.769 136.246C101.071 135.942 100.523 135.508 100.125 134.946C99.7324 134.383 99.5156 133.718 99.4746 132.95H101.408C101.467 133.618 101.757 134.128 102.278 134.48C102.8 134.831 103.453 135.007 104.238 135.007C104.771 135.007 105.249 134.922 105.671 134.752C106.099 134.576 106.433 134.333 106.673 134.023C106.919 133.706 107.045 133.343 107.051 132.933C107.045 132.423 106.837 132.028 106.427 131.746C106.017 131.459 105.422 131.216 104.643 131.017L103.131 130.613C100.916 130.003 99.8086 128.878 99.8086 127.238C99.8086 126.523 100.005 125.887 100.397 125.33C100.796 124.774 101.341 124.343 102.032 124.038C102.724 123.734 103.494 123.581 104.344 123.581C105.193 123.581 105.952 123.734 106.62 124.038C107.288 124.337 107.812 124.756 108.193 125.295C108.574 125.828 108.773 126.435 108.791 127.115H106.91ZM115.348 128.433H113.396V133.671C113.396 134.157 113.496 134.491 113.695 134.673C113.9 134.849 114.182 134.943 114.539 134.954C114.703 134.954 114.961 134.943 115.312 134.919C115.348 134.907 115.406 134.902 115.488 134.902V136.536C115.137 136.583 114.744 136.607 114.311 136.607C113.801 136.607 113.335 136.513 112.913 136.325C112.491 136.138 112.154 135.854 111.902 135.473C111.65 135.086 111.527 134.615 111.533 134.058V128.433H110.127V126.939H111.533V124.654H113.396V126.939H115.348V128.433ZM116.736 133.794C116.736 132.804 117.07 132.098 117.738 131.676C118.406 131.254 119.262 131.005 120.305 130.929C120.703 130.9 121.137 130.873 121.605 130.85C122.08 130.821 122.481 130.8 122.81 130.788L122.801 130.032C122.801 129.488 122.637 129.069 122.309 128.776C121.98 128.477 121.5 128.327 120.867 128.327C120.334 128.327 119.897 128.439 119.558 128.661C119.218 128.878 118.998 129.171 118.898 129.54H117.035C117.094 129.013 117.29 128.544 117.624 128.134C117.958 127.718 118.409 127.396 118.978 127.167C119.552 126.933 120.205 126.816 120.938 126.816C121.541 126.816 122.121 126.909 122.678 127.097C123.24 127.284 123.715 127.624 124.102 128.116C124.488 128.609 124.682 129.282 124.682 130.138V136.484H122.854V135.183H122.783C122.566 135.605 122.221 135.962 121.746 136.255C121.277 136.548 120.68 136.695 119.953 136.695C119.344 136.695 118.796 136.58 118.31 136.352C117.823 136.123 117.439 135.792 117.158 135.359C116.877 134.919 116.736 134.398 116.736 133.794ZM118.564 133.812C118.564 134.257 118.729 134.6 119.057 134.84C119.391 135.08 119.83 135.2 120.375 135.2C120.867 135.2 121.298 135.104 121.667 134.91C122.036 134.711 122.32 134.448 122.52 134.119C122.719 133.785 122.818 133.425 122.818 133.038L122.81 132.168L120.568 132.318C119.93 132.365 119.435 132.511 119.083 132.757C118.737 132.997 118.564 133.349 118.564 133.812ZM127.758 140.07C127.336 140.07 127.002 140.052 126.756 140.017V138.452C127.037 138.476 127.318 138.488 127.6 138.488C127.84 138.488 128.039 138.464 128.197 138.417C128.355 138.37 128.511 138.256 128.663 138.074C128.821 137.893 128.971 137.615 129.111 137.24L129.34 136.607L125.842 126.939H127.846L130.254 134.339H130.359L132.768 126.939H134.789L130.852 137.749C130.576 138.517 130.184 139.094 129.674 139.481C129.17 139.873 128.531 140.07 127.758 140.07ZM136.951 136.607C136.729 136.607 136.518 136.551 136.318 136.44C136.125 136.328 135.973 136.176 135.861 135.983C135.75 135.789 135.697 135.581 135.703 135.359C135.697 135.136 135.75 134.928 135.861 134.735C135.973 134.541 136.125 134.389 136.318 134.278C136.518 134.166 136.729 134.111 136.951 134.111C137.168 134.111 137.373 134.166 137.566 134.278C137.76 134.389 137.912 134.541 138.023 134.735C138.141 134.928 138.199 135.136 138.199 135.359C138.199 135.581 138.141 135.789 138.023 135.983C137.912 136.176 137.76 136.328 137.566 136.44C137.373 136.551 137.168 136.607 136.951 136.607Z" fill="white"/>
<defs>
<clipPath id="clip0_747_306">
<rect width="111.07" height="83.9677" fill="white" transform="translate(14.6145 11.1262)"/>
</clipPath>
</defs>
</svg>
