<svg width="24" height="24" viewBox="0 0 24 24" fill="none" xmlns="http://www.w3.org/2000/svg">
<path fill-rule="evenodd" clip-rule="evenodd" d="M20.55 6.28488C21.015 6.69588 21.0585 7.40688 20.6475 7.87488L12.0225 17.6249C11.9229 17.7375 11.8018 17.829 11.6662 17.894C11.5306 17.959 11.3834 17.9962 11.2332 18.0033C11.083 18.0104 10.9329 17.9874 10.7918 17.9355C10.6507 17.8837 10.5214 17.8041 10.4115 17.7014L4.78654 12.4514C4.57014 12.2474 4.44328 11.9661 4.43369 11.669C4.4241 11.3718 4.53255 11.0829 4.73534 10.8654C4.93814 10.6479 5.21877 10.5196 5.51591 10.5084C5.81305 10.4973 6.10251 10.6042 6.32104 10.8059L11.106 15.2609L18.966 6.38088C19.064 6.27002 19.1829 6.17958 19.3159 6.11474C19.4489 6.0499 19.5934 6.01194 19.7411 6.00302C19.8888 5.9941 20.0368 6.01441 20.1767 6.06278C20.3165 6.11114 20.4454 6.18662 20.556 6.28488H20.55Z" fill="#C7C744"/>
</svg>
