<svg width="24" height="24" viewBox="0 0 24 24" fill="none" xmlns="http://www.w3.org/2000/svg">
<path d="M3.9 9.30764C3.89996 8.51575 4.12379 7.73999 4.54567 7.06984C4.96756 6.3997 5.5703 5.86247 6.28437 5.52015C6.99844 5.17782 7.79474 5.04434 8.5814 5.13511C9.36807 5.22588 10.113 5.53719 10.7304 6.03314L10.7514 6.05594L14.5701 9.87434C14.6119 9.91612 14.6615 9.94925 14.7161 9.97186C14.7707 9.99446 14.8293 10.0061 14.8884 10.0061C14.9475 10.0061 15.006 9.99441 15.0606 9.97178C15.1152 9.94915 15.1648 9.91599 15.2065 9.87419C15.2483 9.83239 15.2815 9.78277 15.3041 9.72816C15.3267 9.67355 15.3383 9.61503 15.3383 9.55593C15.3383 9.49683 15.3266 9.43831 15.304 9.38372C15.2814 9.32912 15.2482 9.27952 15.2064 9.23774L12.5364 6.56774L12.7668 6.33764C13.5545 5.54994 14.6228 5.10742 15.7368 5.10742C16.8508 5.10742 17.9191 5.54994 18.7068 6.33764C19.4945 7.12533 19.937 8.19367 19.937 9.30764C19.937 10.4216 19.4945 11.4899 18.7068 12.2776L12.3423 18.6409C12.2866 18.6967 12.2204 18.7409 12.1476 18.7711C12.0748 18.8012 11.9968 18.8168 11.9179 18.8168C11.8391 18.8168 11.7611 18.8012 11.6883 18.7711C11.6155 18.7409 11.5493 18.6967 11.4936 18.6409L9.3726 16.5199L9.354 16.5013L5.13 12.277C4.73995 11.887 4.43054 11.424 4.21944 10.9144C4.00835 10.4048 3.8997 9.85862 3.8997 9.30704" fill="#C7C744"/>
</svg>
