<svg width="24" height="24" viewBox="0 0 24 24" fill="none" xmlns="http://www.w3.org/2000/svg">
<path d="M3.9002 9.30764C3.90016 8.51575 4.124 7.73999 4.54588 7.06984C4.96776 6.3997 5.57051 5.86247 6.28458 5.52015C6.99865 5.17782 7.79494 5.04434 8.58161 5.13511C9.36828 5.22588 10.1133 5.53719 10.7306 6.03314L10.7516 6.05594L14.5703 9.87434C14.6121 9.91612 14.6617 9.94925 14.7163 9.97186C14.7709 9.99446 14.8295 10.0061 14.8886 10.0061C14.9477 10.0061 15.0062 9.99441 15.0608 9.97178C15.1154 9.94915 15.165 9.91599 15.2068 9.87419C15.2485 9.83239 15.2817 9.78277 15.3043 9.72816C15.3269 9.67355 15.3385 9.61503 15.3385 9.55593C15.3385 9.49683 15.3268 9.43831 15.3042 9.38372C15.2816 9.32912 15.2484 9.27952 15.2066 9.23774L12.5366 6.56774L12.767 6.33764C13.5547 5.54994 14.623 5.10742 15.737 5.10742C16.851 5.10742 17.9193 5.54994 18.707 6.33764C19.4947 7.12533 19.9372 8.19367 19.9372 9.30764C19.9372 10.4216 19.4947 11.4899 18.707 12.2776L12.3425 18.6409C12.2868 18.6967 12.2206 18.7409 12.1478 18.7711C12.075 18.8012 11.997 18.8168 11.9182 18.8168C11.8393 18.8168 11.7613 18.8012 11.6885 18.7711C11.6157 18.7409 11.5495 18.6967 11.4938 18.6409L9.3728 16.5199L9.3542 16.5013L5.1302 12.277C4.74015 11.887 4.43074 11.424 4.21965 10.9144C4.00855 10.4048 3.8999 9.85862 3.8999 9.30704" fill="black"/>
</svg>
