<svg width="131" height="100" viewBox="0 0 131 100" fill="none" xmlns="http://www.w3.org/2000/svg">
<g clip-path="url(#clip0_620_38)">
<path d="M66.0084 32.1206C61.7088 32.2681 57.4091 32.3946 53.1308 32.5421C47.1198 32.7318 41.1088 32.9214 35.0978 33.1111C34.1138 33.1322 33.7715 33.5115 33.8357 34.502C34.3277 41.5829 36.4241 48.0947 41.2371 53.5107C47.5476 60.6127 55.5694 63.8159 65.11 62.8465C73.3457 62.0246 79.8273 58.126 84.3623 51.2558C87.0362 47.1885 88.4695 42.6366 89.2182 37.8738C89.5177 36.0615 89.6888 34.207 89.9883 32.3946C90.0524 32.0574 90.4589 31.5306 90.7156 31.5306C92.2772 31.4884 93.8601 31.5306 95.4217 31.6359C100.834 32.0785 103.294 37.2627 101.818 41.7304C100.085 47.02 94.8869 49.9914 89.0898 48.8955C88.0416 48.7059 87.6138 49.0009 87.1432 49.8649C81.7312 60.2755 71.4419 65.2279 60.4895 64.5746C47.5904 63.8159 37.8145 55.8289 33.8785 43.7113C32.7661 40.2973 32.21 36.778 32.1244 33.1954C32.1244 32.2681 32.4239 31.8677 33.3865 31.8467C40.0392 31.8045 46.7134 31.6781 53.3661 31.6991C57.5588 31.6991 61.7515 31.931 65.9657 32.0363C65.9657 32.0574 65.9871 32.0785 66.0084 32.1206ZM88.6406 46.9567C92.3841 48.5584 97.625 46.4931 99.5502 42.763C100.598 40.7399 100.898 38.6325 99.9567 36.504C98.8443 33.9541 96.1062 32.7528 92.7905 33.1743C91.8493 33.3008 91.4643 33.638 91.3787 34.5652C91.0364 38.3796 90.2878 42.1097 88.9615 45.7134C88.8117 46.0927 88.7476 46.4931 88.6192 46.9357L88.6406 46.9567Z" fill="#5E5E0B"/>
<path d="M71.7841 15.114C70.3723 15.114 69.3669 14.0603 69.3883 12.6695C69.4097 11.3207 70.4792 10.3513 71.9125 10.3513C73.2601 10.3513 74.3297 11.405 74.3297 12.6905C74.3297 14.0603 73.2173 15.114 71.7627 15.114H71.7841Z" fill="#C7C744"/>
<path d="M66.0939 18.0642C67.0352 18.0642 67.7625 18.8018 67.7625 19.6869C67.7625 20.5509 66.971 21.3517 66.0939 21.3517C65.1099 21.3517 64.3398 20.6141 64.3398 19.6869C64.3398 18.7386 65.0885 18.0431 66.0939 18.0642Z" fill="#C7C744"/>
<path d="M20.359 88.4726C19.0969 88.4726 17.9417 88.2197 16.9149 87.7139C15.8882 87.2082 15.0753 86.4495 14.4763 85.438C13.8774 84.4264 13.5779 83.2041 13.5779 81.75C13.5779 80.6542 13.749 79.6847 14.1341 78.8418C14.5191 77.9988 14.9897 77.3034 15.6315 76.7344C16.2732 76.1654 17.0005 75.7439 17.8134 75.4699C18.6477 75.196 19.5247 75.0485 20.4445 75.0485C21.1932 75.0485 21.8778 75.1328 22.4981 75.3013C23.1185 75.4699 23.7174 75.7018 24.2522 75.9968L24.3378 78.3571H24.1453L23.1613 76.8187C23.0329 76.5658 22.8832 76.355 22.7334 76.1443C22.5837 75.9336 22.3912 75.7861 22.1559 75.7018C21.9633 75.6175 21.7708 75.5332 21.5783 75.491C21.3858 75.4489 21.1505 75.4278 20.8724 75.4278C20.1237 75.4278 19.4177 75.6175 18.8188 76.0179C18.1984 76.4183 17.7064 77.0716 17.3214 77.9988C16.9577 78.9261 16.7652 80.1694 16.7652 81.7711C16.7652 83.3727 16.9363 84.595 17.3 85.5222C17.6636 86.4495 18.1343 87.1028 18.7332 87.4821C19.3322 87.8825 20.0167 88.0722 20.7868 88.0722C21.2146 88.0722 21.5355 88.0511 21.7922 87.9879C22.0489 87.9247 22.2842 87.8404 22.5409 87.735C22.7976 87.6296 22.9687 87.4821 23.0971 87.2925C23.2254 87.1028 23.3538 86.871 23.4607 86.6392L24.3164 84.7425H24.5089L24.4447 87.5032C23.8886 87.7772 23.2896 88.009 22.6051 88.1986C21.9205 88.3883 21.1932 88.4726 20.3804 88.4726H20.359Z" fill="#5E5E0B"/>
<path d="M25.0222 88.1352V87.9456L25.5142 87.777C25.7709 87.6716 25.9848 87.5452 26.1132 87.3976C26.2629 87.2501 26.3699 87.0394 26.4768 86.7654L30.4984 75.3644H32.167L36.1458 86.8286C36.2527 87.1026 36.3597 87.3344 36.5094 87.4819C36.6378 87.6295 36.8517 87.7559 37.1084 87.8613L37.3437 87.9456V88.1352H32.3809V87.9456L32.6804 87.8613C32.9584 87.7559 33.1296 87.6084 33.1724 87.4187C33.2365 87.229 33.2151 87.0183 33.151 86.7443L32.2311 83.9626H27.8887L26.9474 86.6811C26.8619 86.9551 26.8191 87.1869 26.8619 87.3555C26.9047 87.5241 27.0544 87.6505 27.3111 87.7559L27.7389 87.9245V88.1142H25.0436L25.0222 88.1352ZM27.9956 83.5832H32.0814L30.1134 77.5982L27.9956 83.5832Z" fill="#5E5E0B"/>
<path d="M37.9427 88.1353V87.9457L38.3064 87.8403C38.5631 87.756 38.7342 87.6296 38.8412 87.482C38.9268 87.3345 38.9695 87.1238 38.9695 86.8709C38.9695 86.0912 38.9695 85.3114 38.9695 84.5317V79.0946C38.9695 78.3148 38.9695 77.5351 38.9695 76.7764C38.9695 76.5236 38.9268 76.3128 38.8626 76.1653C38.7984 76.0178 38.6273 75.8913 38.392 75.807L37.9641 75.6595V75.4698H47.4406L47.5689 78.6731H47.3764L46.264 76.65C46.1357 76.3971 45.9859 76.2074 45.8148 76.081C45.6437 75.9546 45.4084 75.8703 45.1089 75.8703H41.9643C41.9643 76.7764 41.9643 77.7248 41.9643 78.6731V81.497H43.9965C44.296 81.497 44.5099 81.4338 44.6597 81.3073C44.8094 81.1809 44.9378 80.9912 45.0661 80.7594L45.4725 80.0218H45.6651V83.3937H45.4725L45.0447 82.6561C44.9164 82.4243 44.788 82.2346 44.6383 82.0871C44.5099 81.9396 44.2746 81.8763 43.9751 81.8763H41.943V84.4474C41.943 85.2693 41.943 86.0701 41.943 86.8498C41.943 87.3556 42.1996 87.6717 42.6916 87.8403L43.2692 88.0089V88.1986H37.9427V88.1353Z" fill="#5E5E0B"/>
<path d="M48.3175 88.1352V87.9456L48.7667 87.777C48.9806 87.6927 49.1304 87.5662 49.2159 87.4187C49.3015 87.2712 49.3443 87.0605 49.3443 86.8076V76.7553C49.3443 76.5024 49.3015 76.2916 49.2373 76.1441C49.1732 75.9966 49.002 75.8702 48.7667 75.7859L48.3175 75.6173V75.4276H57.687L57.8153 78.3991H57.6228L56.7885 76.5867C56.6816 76.3549 56.5532 76.1652 56.4249 76.0177C56.2965 75.8702 56.104 75.8069 55.8473 75.8069H52.3177V81.3705H54.4141C54.6708 81.3705 54.8633 81.3073 55.013 81.1597C55.1414 81.0333 55.2697 80.8436 55.3767 80.6118L55.7617 79.8321H55.9543V83.3093H55.7617L55.3767 82.5085C55.2483 82.2767 55.1414 82.087 55.013 81.9606C54.8847 81.8341 54.6922 81.7498 54.4355 81.7498H52.3391V87.7348H56.2965C56.5532 87.7348 56.7671 87.6716 56.8955 87.5241C57.0452 87.3977 57.1522 87.208 57.2377 86.9551L58.0506 85.1427H58.2431L58.1362 88.1142H48.3817L48.3175 88.1352Z" fill="#5E5E0B"/>
<path d="M63.4414 88.1353V87.9456L63.8265 87.8192C64.0832 87.7349 64.2543 87.6295 64.3398 87.4609C64.4254 87.3134 64.4682 87.1027 64.4682 86.8498V76.7553C64.4682 76.5024 64.4254 76.2917 64.3398 76.1442C64.2543 75.9967 64.0831 75.8702 63.8051 75.7859L63.4414 75.6384V75.4487H68.1903C70.1369 75.4487 71.5274 75.807 72.4044 76.5024C73.2601 77.1979 73.7093 78.1251 73.7093 79.2631C73.7093 80.0007 73.5382 80.6751 73.1745 81.2862C72.8109 81.8974 72.2333 82.3821 71.399 82.7403C70.5862 83.0986 69.4738 83.2883 68.0834 83.2883H67.4202V86.8287C67.4202 87.3345 67.6769 87.6506 68.1903 87.8192L68.7679 87.9878V88.1774H63.4414V88.1353ZM67.4202 82.8457H68.1689C68.8107 82.8457 69.3241 82.7403 69.7305 82.5296C70.1369 82.3189 70.4364 81.9606 70.6289 81.4548C70.8215 80.9491 70.9284 80.2325 70.9284 79.3053C70.9284 78.378 70.8215 77.6615 70.6075 77.1557C70.3936 76.65 70.0728 76.2917 69.6663 76.081C69.2599 75.8702 68.7251 75.7859 68.1047 75.7859H67.4416V82.8457H67.4202Z" fill="#5E5E0B"/>
<path d="M72.6182 88.1352V87.9456L73.1102 87.777C73.3669 87.6716 73.5808 87.5452 73.7091 87.3976C73.8589 87.2501 73.9658 87.0394 74.0728 86.7654L78.0944 75.3644H79.7629L83.7417 86.8286C83.8487 87.1026 83.9556 87.3344 84.084 87.4819C84.2123 87.6295 84.4262 87.7559 84.6829 87.8613L84.9182 87.9456V88.1352H79.9554V87.9456L80.2549 87.8613C80.533 87.7559 80.7041 87.6084 80.7469 87.4187C80.8111 87.229 80.7897 87.0183 80.7255 86.7443L79.8057 83.9626H75.4632L74.522 86.6811C74.4364 86.9551 74.3937 87.1869 74.4364 87.3555C74.4792 87.5241 74.629 87.6505 74.8857 87.7559L75.3135 87.9245V88.1142H72.6182V88.1352ZM75.5916 83.5832H79.6773L77.7093 77.5982L75.5916 83.5832Z" fill="#5E5E0B"/>
<path d="M90.6726 88.4724C89.6886 88.4724 88.8115 88.3038 88.0414 87.9456C87.2713 87.5873 86.6938 87.0394 86.2659 86.3018C85.8381 85.5642 85.6242 84.5527 85.6242 83.3304V76.671C85.6242 76.1863 85.3675 75.8702 84.8541 75.7016L84.4263 75.5751V75.3855H89.8383V75.5751L89.2607 75.7226C88.7687 75.8491 88.5334 76.1652 88.5334 76.692V83.794C88.5334 84.9952 88.7901 85.8803 89.3035 86.4493C89.8169 87.0183 90.5442 87.3133 91.4854 87.3133C92.4267 87.3133 93.2609 87.0183 93.8385 86.4072C94.4161 85.796 94.7156 84.9531 94.7156 83.8361V76.7553C94.7156 76.5024 94.6728 76.2706 94.5872 76.0809C94.5016 75.8912 94.3305 75.7437 94.0738 75.6805L93.5818 75.554V75.3644H96.3199V75.554L95.7851 75.6805C95.5284 75.7226 95.3787 75.8491 95.2931 76.0387C95.2076 76.2284 95.1862 76.4602 95.1862 76.7131V83.7729C95.1862 84.7212 94.9937 85.5221 94.6086 86.2386C94.2236 86.934 93.7102 87.4819 93.0256 87.8613C92.3411 88.2406 91.5496 88.4303 90.6298 88.4303L90.6726 88.4724Z" fill="#5E5E0B"/>
<path d="M100.983 88.4727C100.256 88.4727 99.5285 88.3884 98.8012 88.2198C98.0739 88.0512 97.4322 87.8194 96.9402 87.5454L97.0471 84.9322H97.2397L97.8386 86.1756C98.0098 86.5338 98.2237 86.85 98.4162 87.1239C98.6301 87.3979 98.9082 87.6086 99.2719 87.7772C99.5286 87.9037 99.7852 87.988 100.021 88.0301C100.256 88.0722 100.534 88.0933 100.833 88.0933C101.625 88.0933 102.267 87.8826 102.716 87.4611C103.186 87.0396 103.4 86.4917 103.4 85.8173C103.4 85.1851 103.251 84.7004 102.93 84.3421C102.609 83.9839 102.117 83.6467 101.411 83.3095L100.598 82.9513C99.4858 82.4666 98.6087 81.8976 97.967 81.2653C97.3252 80.6331 97.0257 79.7902 97.0257 78.7365C97.0257 77.9778 97.2183 77.3245 97.6247 76.7766C98.0311 76.2287 98.5873 75.8072 99.2932 75.5121C99.9992 75.2171 100.833 75.0696 101.796 75.0696C102.481 75.0696 103.144 75.1539 103.764 75.3435C104.384 75.5332 104.919 75.765 105.368 76.0811L105.261 78.3993H105.069L104.256 76.9452C104.042 76.5026 103.807 76.1865 103.593 75.9968C103.379 75.8072 103.122 75.6807 102.823 75.5964C102.652 75.5543 102.502 75.5121 102.352 75.4911C102.202 75.4911 102.031 75.47 101.796 75.47C101.133 75.47 100.577 75.6597 100.106 76.039C99.6569 76.4183 99.4216 76.9241 99.4216 77.5774C99.4216 78.2307 99.5927 78.7575 99.9564 79.1579C100.32 79.5584 100.833 79.8955 101.497 80.2116L102.395 80.591C103.636 81.1389 104.556 81.7079 105.09 82.319C105.647 82.9302 105.903 83.7099 105.903 84.6793C105.903 85.8173 105.475 86.7235 104.598 87.44C103.721 88.1565 102.502 88.5148 100.919 88.5148L100.983 88.4727Z" fill="#5E5E0B"/>
<path d="M106.887 88.1352V87.9456L107.337 87.777C107.55 87.6927 107.722 87.5662 107.807 87.4187C107.893 87.2712 107.936 87.0605 107.936 86.8076V76.7553C107.936 76.5024 107.893 76.2916 107.829 76.1441C107.764 75.9966 107.593 75.8702 107.358 75.7859L106.909 75.6173V75.4276H116.278L116.385 78.3991H116.193L115.358 76.5867C115.251 76.3549 115.123 76.1652 114.995 76.0177C114.866 75.8702 114.674 75.8069 114.417 75.8069H110.888V81.3705H112.984C113.241 81.3705 113.433 81.3073 113.583 81.1597C113.711 81.0333 113.84 80.8436 113.947 80.6118L114.332 79.8321H114.524V83.3093H114.332L113.947 82.5085C113.84 82.2767 113.711 82.087 113.583 81.9606C113.455 81.8341 113.262 81.7498 113.005 81.7498H110.909V87.7348H114.866C115.123 87.7348 115.337 87.6716 115.465 87.5241C115.615 87.3977 115.722 87.208 115.829 86.9551L116.642 85.1427H116.834L116.706 88.1142H106.952L106.887 88.1352Z" fill="#5E5E0B"/>
</g>
<defs>
<clipPath id="clip0_620_38">
<rect width="103.192" height="78.1214" fill="white" transform="translate(13.578 10.3516)"/>
</clipPath>
</defs>
</svg>
